<svg xmlns="http://www.w3.org/2000/svg" viewBox="0 0 100 100">
  <!-- Background circle with poker green -->
  <circle cx="50" cy="50" r="48" fill="#0B5C3D" stroke="#D4AF37" stroke-width="3"/>

  <!-- Poker suits arranged in a square pattern -->
  <!-- Spade (top-left) -->
  <g transform="translate(25, 25)">
    <path d="M10,18 Q10,10 5,5 Q0,0 0,5 Q0,10 5,15 L5,18 L3,18 L3,20 L12,20 L12,18 L10,18 Z"
          fill="#FFFFFF" stroke="#D4AF37" stroke-width="0.5"/>
  </g>

  <!-- Heart (top-right) -->
  <g transform="translate(60, 25)">
    <path d="M7.5,17 L2,11 Q0,9 0,6.5 Q0,3 2.5,2 Q5,1 7.5,4 Q10,1 12.5,2 Q15,3 15,6.5 Q15,9 13,11 L7.5,17 Z"
          fill="#DC2626" stroke="#D4AF37" stroke-width="0.5"/>
  </g>

  <!-- Club (bottom-left) -->
  <g transform="translate(25, 60)">
    <path d="M7.5,2 Q4,2 2,4 Q0,6 0,9 Q0,11 1.5,12.5 Q2,13 4,13 Q3,14 3,15 L3,18 L3,18 L3,20 L12,20 L12,18 L12,15 Q12,14 11,13 Q13,13 13.5,12.5 Q15,11 15,9 Q15,6 13,4 Q11,2 7.5,2 Z"
          fill="#FFFFFF" stroke="#D4AF37" stroke-width="0.5"/>
  </g>

  <!-- Diamond (bottom-right) -->
  <g transform="translate(67.5, 70)">
    <path d="M7.5,2 L0,10 L7.5,18 L15,10 Z"
          fill="#DC2626" stroke="#D4AF37" stroke-width="0.5"/>
  </g>

  <!-- Center poker chip circle -->
  <circle cx="50" cy="50" r="12" fill="#FFFFFF" stroke="#D4AF37" stroke-width="2"/>
  <circle cx="50" cy="50" r="10" fill="none" stroke="#0B5C3D" stroke-width="1.5"/>
  <circle cx="50" cy="50" r="6" fill="#D4AF37"/>
</svg>
